<svg id="Layer_1" data-name="Layer 1" xmlns="http://www.w3.org/2000/svg" viewBox="0 0 212.2 41.91"><defs><style>.cls-1{fill:#a9a01f;}.cls-2{fill:#25524a;}</style></defs><path class="cls-1" d="M50.61,6.42H47.55V4.14h8.77V6.42H53.26V17.74H50.61Z"/><path class="cls-1" d="M57.59,7.54H60c0,.17.06.36.08.56s.05.4.06.6a2.22,2.22,0,0,1,2.09-1.24l.4,0a3.45,3.45,0,0,1,.39.07V10l-.25,0-.29,0-.3,0h-.26q-1.74,0-1.74,2.07v5.77H57.59Z"/><path class="cls-1" d="M71.57,15.69v.55c0,.18,0,.34,0,.5s0,.33,0,.49l0,.51H69.19a3.7,3.7,0,0,1-.08-.48c0-.16,0-.33-.06-.51a1.88,1.88,0,0,1-.83.82,3,3,0,0,1-1.32.26,2.62,2.62,0,0,1-2-.69,2.78,2.78,0,0,1-.66-2.05A3.32,3.32,0,0,1,64.41,14a2.11,2.11,0,0,1,.5-.8,3.35,3.35,0,0,1,.93-.62,9.41,9.41,0,0,1,1.45-.53L69,11.6v-.53a4.75,4.75,0,0,0-.06-.82,1.42,1.42,0,0,0-.19-.54.79.79,0,0,0-.32-.31,1.24,1.24,0,0,0-.5-.09,1,1,0,0,0-.9.42,2.56,2.56,0,0,0-.27,1.34H64.4a3.8,3.8,0,0,1,.85-2.73A3.54,3.54,0,0,1,68,7.45a3.76,3.76,0,0,1,2.73.87A3.67,3.67,0,0,1,71.57,11Zm-4.75-.9c0,.79.33,1.18,1,1.18a1,1,0,0,0,.85-.34,1.75,1.75,0,0,0,.33-1V13.19l-1,.31a3.25,3.25,0,0,0-.57.22,1.22,1.22,0,0,0-.37.27.83.83,0,0,0-.2.34A2,2,0,0,0,66.82,14.79Z"/><path class="cls-1" d="M79,17.74c0-.18-.06-.36-.08-.55s0-.38-.06-.58a2.49,2.49,0,0,1-2.31,1.22,2.73,2.73,0,0,1-2.36-1.11,5.48,5.48,0,0,1-.8-3.22V11.78a5.52,5.52,0,0,1,.8-3.23,2.75,2.75,0,0,1,2.36-1.1,2.46,2.46,0,0,1,2.27,1.16V4.14h2.59v13.6Zm-1.63-2a1.28,1.28,0,0,0,1.08-.46,2.31,2.31,0,0,0,.37-1.39V11.36A2.25,2.25,0,0,0,78.4,10a1.26,1.26,0,0,0-1.07-.46,1.18,1.18,0,0,0-1.06.53,3.13,3.13,0,0,0-.35,1.66v1.86a3.13,3.13,0,0,0,.35,1.66A1.17,1.17,0,0,0,77.32,15.76Z"/><path class="cls-1" d="M83.37,5a1.51,1.51,0,0,1,.11-.61,1.31,1.31,0,0,1,.3-.46,1.35,1.35,0,0,1,.47-.3,1.48,1.48,0,0,1,.61-.11,1.46,1.46,0,0,1,.6.11,1.31,1.31,0,0,1,.46.3,1.49,1.49,0,0,1,.31.46,1.7,1.7,0,0,1,.1.61,1.64,1.64,0,0,1-.1.6,1.59,1.59,0,0,1-.31.48,1.49,1.49,0,0,1-.46.31,1.64,1.64,0,0,1-.6.1A1.39,1.39,0,0,1,83.37,5Zm.19,2.59h2.58v10.2H83.56Z"/><path class="cls-1" d="M91.73,14.35a2.9,2.9,0,0,0,.06.64.91.91,0,0,0,.22.4.8.8,0,0,0,.41.21,2.8,2.8,0,0,0,.63.06l.49,0a2.9,2.9,0,0,0,.39-.05v2.15l-.25,0-.4,0-.47,0h-.48a5.15,5.15,0,0,1-1.46-.18,2.34,2.34,0,0,1-1-.59,2.52,2.52,0,0,1-.55-1,5.74,5.74,0,0,1-.18-1.55V9.55H87.66v-2h1.49V5.08l2.58-.54v3h2.19v2H91.73Z"/><path class="cls-1" d="M95.42,5a1.7,1.7,0,0,1,.1-.61,1.49,1.49,0,0,1,.31-.46,1.27,1.27,0,0,1,.47-.3,1.46,1.46,0,0,1,.6-.11,1.51,1.51,0,0,1,.61.11,1.33,1.33,0,0,1,.76.76,1.51,1.51,0,0,1,.11.61,1.46,1.46,0,0,1-.11.6A1.39,1.39,0,0,1,98,6a1.49,1.49,0,0,1-.46.31,1.7,1.7,0,0,1-.61.1A1.42,1.42,0,0,1,95.82,6,1.46,1.46,0,0,1,95.42,5Zm.18,2.59h2.59v10.2H95.6Z"/><path class="cls-1" d="M100.13,11.78a4.59,4.59,0,0,1,1-3.23,4.59,4.59,0,0,1,6,0,4.59,4.59,0,0,1,1,3.23v1.77a4.58,4.58,0,0,1-1,3.22,4.56,4.56,0,0,1-6,0,4.58,4.58,0,0,1-1-3.22Zm2.58,1.84a3.08,3.08,0,0,0,.35,1.66,1.2,1.2,0,0,0,1.07.53,1.16,1.16,0,0,0,1.06-.53,3,3,0,0,0,.35-1.66V11.7a3,3,0,0,0-.35-1.66,1.16,1.16,0,0,0-1.06-.53,1.2,1.2,0,0,0-1.07.53,3.08,3.08,0,0,0-.35,1.66Z"/><path class="cls-1" d="M110.06,7.54h2.41l.09.57q0,.3.06.6A2.54,2.54,0,0,1,115,7.44a3.93,3.93,0,0,1,1.36.21,2.1,2.1,0,0,1,.92.68,2.92,2.92,0,0,1,.53,1.18,7.88,7.88,0,0,1,.17,1.74v6.49H115.4V11.57a2.69,2.69,0,0,0-.31-1.49,1.14,1.14,0,0,0-1-.46,1.21,1.21,0,0,0-1.08.51,3,3,0,0,0-.34,1.65v6h-2.59Z"/><path class="cls-1" d="M127.12,15.69v.55c0,.18,0,.34,0,.5s0,.33,0,.49a4.63,4.63,0,0,0,0,.51h-2.44c0-.16-.06-.31-.08-.48s0-.33,0-.51a1.9,1.9,0,0,1-.84.82,3,3,0,0,1-1.31.26,2.64,2.64,0,0,1-2-.69,2.78,2.78,0,0,1-.66-2.05A3.32,3.32,0,0,1,120,14a2.11,2.11,0,0,1,.5-.8,3.41,3.41,0,0,1,.94-.62,9.65,9.65,0,0,1,1.44-.53l1.72-.49v-.53a4.75,4.75,0,0,0-.06-.82,1.43,1.43,0,0,0-.18-.54A.89.89,0,0,0,124,9.4a1.19,1.19,0,0,0-.49-.09,1,1,0,0,0-.9.42,2.45,2.45,0,0,0-.28,1.34H120a3.85,3.85,0,0,1,.85-2.73,3.58,3.58,0,0,1,2.71-.89,3.75,3.75,0,0,1,2.72.87,3.67,3.67,0,0,1,.89,2.71Zm-4.75-.9c0,.79.34,1.18,1,1.18a1,1,0,0,0,.85-.34,1.68,1.68,0,0,0,.33-1V13.19l-1,.31a4,4,0,0,0-.57.22,1.36,1.36,0,0,0-.37.27.72.72,0,0,0-.19.34A1.56,1.56,0,0,0,122.37,14.79Z"/><path class="cls-1" d="M129.15,4.14h2.59v13.6h-2.59Z"/><path class="cls-1" d="M139.75,4.14H143l2.7,8.31,2.68-8.31h3.2v13.6H149v-9l-2.32,7.15h-2.13l-2.32-7.15v9h-2.51Z"/><path class="cls-1" d="M156.24,13.58q0,2.19,1.38,2.19a1.21,1.21,0,0,0,1-.43,2.15,2.15,0,0,0,.4-1.24h2.46a3.86,3.86,0,0,1-1,2.78,3.89,3.89,0,0,1-2.83.95,3.82,3.82,0,0,1-3-1.1,4.67,4.67,0,0,1-1-3.23V11.78a4.63,4.63,0,0,1,1-3.23,3.77,3.77,0,0,1,2.93-1.1,3.86,3.86,0,0,1,2.87,1,4,4,0,0,1,1,2.9v1.82h-5.23Zm2.75-2v-.26a2.36,2.36,0,0,0-.36-1.35,1.29,1.29,0,0,0-2,0,2.86,2.86,0,0,0-.37,1.53v.07Z"/><path class="cls-1" d="M168.77,17.74l-.09-.55c0-.18,0-.38-.06-.58a2.49,2.49,0,0,1-2.31,1.22A2.71,2.71,0,0,1,164,16.72a5.41,5.41,0,0,1-.81-3.22V11.78A5.44,5.44,0,0,1,164,8.55a2.73,2.73,0,0,1,2.35-1.1,2.47,2.47,0,0,1,2.28,1.16V4.14h2.59v13.6Zm-1.63-2a1.25,1.25,0,0,0,1.07-.46,2.37,2.37,0,0,0,.38-1.39V11.36a2.32,2.32,0,0,0-.38-1.38,1.24,1.24,0,0,0-1.06-.46,1.19,1.19,0,0,0-1.07.53,3.13,3.13,0,0,0-.35,1.66v1.86a3.13,3.13,0,0,0,.35,1.66A1.18,1.18,0,0,0,167.14,15.76Z"/><path class="cls-1" d="M173.18,5a1.7,1.7,0,0,1,.11-.61,1.31,1.31,0,0,1,.3-.46,1.35,1.35,0,0,1,.47-.3,1.51,1.51,0,0,1,.61-.11,1.46,1.46,0,0,1,.6.11,1.31,1.31,0,0,1,.46.3,1.33,1.33,0,0,1,.31.46,1.7,1.7,0,0,1,.11.61,1.64,1.64,0,0,1-.11.6,1.42,1.42,0,0,1-.31.48,1.49,1.49,0,0,1-.46.31,1.64,1.64,0,0,1-.6.1A1.42,1.42,0,0,1,173.59,6,1.46,1.46,0,0,1,173.18,5Zm.19,2.59H176v10.2h-2.59Z"/><path class="cls-1" d="M180.47,13.57a3.14,3.14,0,0,0,.34,1.67,1.1,1.1,0,0,0,1,.52c.88,0,1.33-.66,1.33-2h2.48a4.3,4.3,0,0,1-1,3,3.76,3.76,0,0,1-2.86,1,3.72,3.72,0,0,1-2.9-1.1,4.71,4.71,0,0,1-1-3.23V11.78a4.68,4.68,0,0,1,1-3.23,3.72,3.72,0,0,1,2.9-1.1,3.76,3.76,0,0,1,2.86,1,4.3,4.3,0,0,1,1,3h-2.48c0-1.34-.45-2-1.33-2a1.09,1.09,0,0,0-1,.53,3.1,3.1,0,0,0-.34,1.66Z"/><path class="cls-1" d="M187.33,5a1.7,1.7,0,0,1,.11-.61,1.31,1.31,0,0,1,.3-.46,1.35,1.35,0,0,1,.47-.3,1.54,1.54,0,0,1,.61-.11,1.46,1.46,0,0,1,.6.11,1.35,1.35,0,0,1,.47.3,1.31,1.31,0,0,1,.3.46,1.7,1.7,0,0,1,.11.61,1.64,1.64,0,0,1-.11.6,1.39,1.39,0,0,1-.3.48,1.54,1.54,0,0,1-.47.31,1.64,1.64,0,0,1-.6.1A1.42,1.42,0,0,1,187.74,6,1.46,1.46,0,0,1,187.33,5Zm.19,2.59h2.59v10.2h-2.59Z"/><path class="cls-1" d="M192.3,7.54h2.41l.09.57q0,.3.06.6a2.55,2.55,0,0,1,2.38-1.27,3.89,3.89,0,0,1,1.36.21,2.13,2.13,0,0,1,.93.68,2.92,2.92,0,0,1,.52,1.18,7.88,7.88,0,0,1,.17,1.74v6.49h-2.58V11.57a2.69,2.69,0,0,0-.31-1.49,1.12,1.12,0,0,0-1-.46,1.21,1.21,0,0,0-1.08.51,3.13,3.13,0,0,0-.34,1.65v6H192.3Z"/><path class="cls-1" d="M204.67,13.58q0,2.19,1.38,2.19a1.21,1.21,0,0,0,1-.43,2.15,2.15,0,0,0,.4-1.24h2.46a3.86,3.86,0,0,1-1,2.78,3.89,3.89,0,0,1-2.83.95,3.82,3.82,0,0,1-3-1.1,4.67,4.67,0,0,1-1-3.23V11.78a4.63,4.63,0,0,1,1-3.23A3.77,3.77,0,0,1,206,7.45a3.86,3.86,0,0,1,2.87,1,4,4,0,0,1,1,2.9v1.82h-5.23Zm2.75-2v-.26a2.36,2.36,0,0,0-.36-1.35,1.29,1.29,0,0,0-2,0,2.86,2.86,0,0,0-.37,1.53v.07Z"/><path class="cls-1" d="M50.84,28.67H47.56V26.9h8.71v1.77H53v9.74H50.84Z"/><path class="cls-1" d="M67.27,33.71c-.07-1.48-.15-3.27-.14-4.84h0c-.38,1.41-.86,3-1.35,4.42l-1.69,5H62.42l-1.53-4.91c-.45-1.48-.86-3-1.16-4.49h0c0,1.51-.12,3.35-.2,4.91l-.26,4.63h-2L58,26.9H60.8l1.5,4.62c.41,1.36.78,2.73,1.06,4h0c.3-1.26.7-2.66,1.15-4l1.59-4.61h2.73l.66,11.51H67.49Z"/><path class="cls-1" d="M79.93,38.07a7.54,7.54,0,0,1-3,.52c-3.65,0-5.88-2.3-5.88-5.8a5.8,5.8,0,0,1,6.16-6.07,6.39,6.39,0,0,1,2.79.51l-.46,1.67a5.49,5.49,0,0,0-2.24-.45c-2.35,0-4,1.47-4,4.23,0,2.54,1.47,4.15,4,4.15a6.13,6.13,0,0,0,2.3-.42Z"/><path class="cls-2" d="M85.37,33.14v1.45H81V33.14Z"/><path class="cls-2" d="M86.63,38.41V37.13l1.31-1.22c2.61-2.42,3.84-3.75,3.86-5.22a1.74,1.74,0,0,0-2-1.86,3.93,3.93,0,0,0-2.37.92l-.62-1.49a5.53,5.53,0,0,1,3.41-1.14c2.46,0,3.66,1.55,3.66,3.36S92.5,34,90.56,35.79l-1,.85v0h4.55v1.74Z"/><path class="cls-2" d="M103.61,32.78c0,3.58-1.39,5.82-4,5.82s-3.92-2.33-3.94-5.71,1.47-5.77,4.06-5.77S103.61,29.52,103.61,32.78Zm-5.88.11c0,2.7.74,4.1,1.9,4.1s1.88-1.5,1.88-4.16-.61-4.1-1.88-4.1C98.51,28.73,97.73,30.11,97.73,32.89Z"/><path class="cls-2" d="M104.93,38.41V37.13l1.32-1.22c2.61-2.42,3.84-3.75,3.86-5.22a1.75,1.75,0,0,0-2-1.86,4,4,0,0,0-2.37.92l-.61-1.49a5.49,5.49,0,0,1,3.4-1.14c2.46,0,3.67,1.55,3.67,3.36s-1.4,3.52-3.34,5.31l-1,.85v0h4.54v1.74Z"/><path class="cls-2" d="M120.84,28.8a7,7,0,0,0-1.07.05,3.91,3.91,0,0,0-3.72,3.24h0a3.2,3.2,0,0,1,2.5-1.07,3.34,3.34,0,0,1,3.4,3.61,3.85,3.85,0,0,1-3.91,4c-2.69,0-4.19-2.05-4.19-4.79a6.78,6.78,0,0,1,1.93-5,6.39,6.39,0,0,1,4-1.64,7,7,0,0,1,1.06,0Zm-1,5.95a1.94,1.94,0,0,0-1.93-2.2,2,2,0,0,0-1.82,1.15,1.45,1.45,0,0,0-.13.66c0,1.47.72,2.67,2.08,2.67C119.15,37,119.86,36.08,119.86,34.75Z"/><path class="cls-1" d="M136.23,26.9h2.1v7.46c0,3.18-1.54,4.24-3.82,4.24a5.65,5.65,0,0,1-1.76-.28l.26-1.69a4.23,4.23,0,0,0,1.3.2c1.19,0,1.92-.54,1.92-2.54Z"/><path class="cls-1" d="M148,35.92c0,1,0,1.81.07,2.49h-1.83l-.11-1.26h0a3,3,0,0,1-2.67,1.45c-1.51,0-2.89-.91-2.89-3.63V30.1h2.1v4.52c0,1.38.44,2.26,1.55,2.26a1.75,1.75,0,0,0,1.61-1.12,1.84,1.84,0,0,0,.11-.65v-5H148Z"/><path class="cls-1" d="M150.28,26.28h2.1V38.41h-2.1Z"/><path class="cls-1" d="M156,30.1l1.49,4.45c.17.52.35,1.15.47,1.61H158c.13-.46.29-1.09.44-1.63l1.3-4.43H162l-2.09,5.67c-1.14,3.1-1.91,4.48-2.89,5.34a4.25,4.25,0,0,1-2.2,1.06l-.48-1.76a3.72,3.72,0,0,0,1.22-.58,3.6,3.6,0,0,0,1.15-1.32.86.86,0,0,0,.13-.37,1,1,0,0,0-.11-.41l-3.05-7.63Z"/><path class="cls-2" d="M161.46,40.48A27.57,27.57,0,0,0,162.6,36l2.21-.17a22,22,0,0,1-1.92,4.54Z"/><path class="cls-2" d="M169.62,38.41V37.13l1.32-1.22c2.61-2.42,3.84-3.75,3.85-5.21a1.74,1.74,0,0,0-2-1.87,4,4,0,0,0-2.37.92l-.61-1.49a5.49,5.49,0,0,1,3.4-1.14c2.46,0,3.67,1.55,3.67,3.36s-1.4,3.52-3.35,5.32l-1,.84v0h4.55v1.74Z"/><path class="cls-2" d="M183.39,38.41V35.59h-5V34.22l4.53-6.91h2.48V34h1.43v1.6h-1.43v2.82Zm0-4.42V31c0-.62,0-1.26.07-1.92h-.06c-.35.69-.64,1.26-1,1.87l-2,3v0Z"/><path class="cls-2" d="M192.05,33.14v1.45H187.7V33.14Z"/><path class="cls-2" d="M193.31,38.41V37.13l1.31-1.22c2.61-2.42,3.85-3.75,3.86-5.21a1.74,1.74,0,0,0-2-1.87,4,4,0,0,0-2.37.92l-.62-1.49a5.53,5.53,0,0,1,3.41-1.14c2.46,0,3.66,1.55,3.66,3.36s-1.4,3.52-3.34,5.32l-1,.84v0h4.55v1.74Z"/><path class="cls-2" d="M209.51,29.05h-4.27l-.32,2.22a6.1,6.1,0,0,1,.8-.05,4.94,4.94,0,0,1,2.69.71,3.19,3.19,0,0,1,1.45,2.82c0,2.12-1.75,3.85-4.48,3.85a6.28,6.28,0,0,1-2.94-.66l.43-1.59a5.5,5.5,0,0,0,2.44.59,2.16,2.16,0,0,0,2.4-2c0-1.26-.94-2.11-3.15-2.11a10.56,10.56,0,0,0-1.52.11l.72-5.6h5.75Z"/><rect class="cls-2" x="126.95" y="22.71" width="1" height="15.96"/><rect class="cls-2" x="47.43" y="22.25" width="162.62" height="1"/><path class="cls-2" d="M28,33.51c.84,1.69.3,2.59-1.49,2.59H15.73c-1.83,0-2.4-.9-1.55-2.59a16.26,16.26,0,0,1-9.09-14.4H32.46c-.89-3.35-.36-6.49.46-9.71-1.26.87-2.16,3.57-2.37,6.78-2.39-4.34.5-8.75,5-10.23.3,4.47,0,8.82-2,13.09h3.29C37.69,24,34,30,28,33.51Z"/><path class="cls-2" d="M32.85,19l.46.09c.45-1.53.93-3,1.32-4.57a1.36,1.36,0,0,0-.36-.89c-.43-.53-.93-1-1.51-1.64A14.19,14.19,0,0,0,32.85,19Z"/><path class="cls-2" d="M30.44,10.62l-.38,3.65C31.22,11.06,31.22,11.06,30.44,10.62Z"/><path class="cls-1" d="M36.42,9.12c5.39,6.41,6,17.51-1,25.22a19.65,19.65,0,0,1-31-24c.61,1.1,1.3,1.88.58,3.42a17.47,17.47,0,1,0,33.26,5.79,14.51,14.51,0,0,0-1.13-4.7A9.69,9.69,0,0,1,36.42,9.12Z"/><path class="cls-1" d="M2.27,7.78l5-3.71c.06.14.1.19.09.21-.88,1.58.32,2.36,1.19,3.37,3,3.5,5.91,7.07,9,10.81-2,0-3.6-.08-5.23,0a3.08,3.08,0,0,1-3.16-1.66c-1.29-2.17-2.65-4.3-3.91-6.5C4.17,8.41,4.22,8.38,2.27,7.78ZM14,15.19l-.24.16a2,2,0,0,1,0,.65c-.65,1.87-.66,1.87,1.34,1.9h1.13Z"/><path class="cls-2" d="M33.36,6,31.75,7.14c-7.48-5-14.87-4.91-22.26.41L8.27,6.14C14.42.26,25.82-.53,33.36,6Z"/><path class="cls-2" d="M7.11,3.41,1.54,7.58a2.9,2.9,0,0,1,.93-3.85A3.53,3.53,0,0,1,7.11,3.41Z"/><path class="cls-2" d="M27.51,16.45,25.8,13.39l.22,3c-1.58-.65-1.32-4,.34-5.58,1.56,2.38,2.91,4.79,2.64,8l-.39-.7L29,18c-.25-.95-.46-1.93-.8-2.85-.07-.19-.66-.19-1-.28a7.14,7.14,0,0,0,.07.93A2.53,2.53,0,0,0,27.51,16.45Z"/><polygon class="cls-1" points="16.48 18.06 13.01 18.06 13.63 14.71 15.49 16.51 16.48 18.06"/><path class="cls-2" d="M29,18.22l-.08.33a20.42,20.42,0,0,1-2.05-3.33l1.07-1.1C28.45,15.67,29.11,17.19,29,18.22Z"/></svg>