<svg id="Layer_1" data-name="Layer 1" xmlns="http://www.w3.org/2000/svg" viewBox="0 0 184.77 61.38"><defs><style>.cls-1{fill:#de001c;}.cls-2{fill:#020201;}.cls-3{fill:#df001b;}</style></defs><rect class="cls-1" x="1.31" y="32.02" width="182.14" height="0.35"/><path class="cls-2" d="M11.2,51.76H9.65L3.44,42.42v9.34H1.9V40H3.44l6.21,9.31V40H11.2Z"/><path class="cls-2" d="M15.51,51.32a4.23,4.23,0,0,1-1.66-1.67,5.16,5.16,0,0,1-.6-2.52,5,5,0,0,1,.62-2.5A4.15,4.15,0,0,1,15.56,43a5.21,5.21,0,0,1,4.78,0A4.26,4.26,0,0,1,22,44.62a5,5,0,0,1,.62,2.51A4.87,4.87,0,0,1,22,49.65a4.38,4.38,0,0,1-1.72,1.67,5,5,0,0,1-2.41.59A4.84,4.84,0,0,1,15.51,51.32Zm3.93-1.14A3,3,0,0,0,20.62,49a3.72,3.72,0,0,0,.45-1.89,3.76,3.76,0,0,0-.44-1.88,2.92,2.92,0,0,0-1.15-1.16,3.43,3.43,0,0,0-3.1,0,2.81,2.81,0,0,0-1.13,1.16,3.87,3.87,0,0,0-.42,1.88,4,4,0,0,0,.41,1.9,2.74,2.74,0,0,0,1.11,1.15,3.1,3.1,0,0,0,1.53.38A3.33,3.33,0,0,0,19.44,50.18Z"/><path class="cls-2" d="M28.15,50.34,31,42.54h1.65L29,51.76h-1.8l-3.65-9.22h1.67Z"/><path class="cls-2" d="M42.64,47.72H35.2a2.92,2.92,0,0,0,3,2.89,2.88,2.88,0,0,0,1.67-.46,2.5,2.5,0,0,0,.94-1.23H42.5A4,4,0,0,1,41,51.08a4.58,4.58,0,0,1-2.78.83,4.73,4.73,0,0,1-2.37-.59,4.18,4.18,0,0,1-1.64-1.67,5.16,5.16,0,0,1-.59-2.52,5.31,5.31,0,0,1,.57-2.51A4.09,4.09,0,0,1,35.82,43a4.86,4.86,0,0,1,2.41-.58,4.72,4.72,0,0,1,2.34.57,4,4,0,0,1,1.57,1.57,4.69,4.69,0,0,1,.55,2.26C42.69,47.09,42.67,47.4,42.64,47.72ZM40.7,45a2.52,2.52,0,0,0-1.06-1,3.31,3.31,0,0,0-1.48-.33,2.91,2.91,0,0,0-2,.74,3,3,0,0,0-.94,2.06h5.87A2.8,2.8,0,0,0,40.7,45Z"/><path class="cls-2" d="M57.84,42.82a3.24,3.24,0,0,1,1.34,1.33,4.43,4.43,0,0,1,.49,2.17v5.44H58.14V46.54a3,3,0,0,0-.68-2.11,2.43,2.43,0,0,0-1.86-.73,2.54,2.54,0,0,0-1.92.76A3.18,3.18,0,0,0,53,46.68v5.08H51.44V46.54a3,3,0,0,0-.68-2.11,2.43,2.43,0,0,0-1.86-.73,2.53,2.53,0,0,0-1.92.76,3.14,3.14,0,0,0-.71,2.22v5.08H44.72V42.54h1.55v1.33a3,3,0,0,1,1.23-1.11,3.7,3.7,0,0,1,1.7-.39,4,4,0,0,1,2.07.52,3.19,3.19,0,0,1,1.34,1.53,3,3,0,0,1,1.29-1.51,3.82,3.82,0,0,1,2-.54A4.08,4.08,0,0,1,57.84,42.82Z"/><path class="cls-2" d="M65.13,42.91a4.16,4.16,0,0,1,2.09-.52,4.31,4.31,0,0,1,2.26.59,4.19,4.19,0,0,1,1.58,1.65,5.7,5.7,0,0,1,0,5,4.28,4.28,0,0,1-1.59,1.7,4.22,4.22,0,0,1-2.25.61,4.13,4.13,0,0,1-2.11-.52,3.58,3.58,0,0,1-1.37-1.33v1.7H62.2V39.31h1.54v4.94A3.74,3.74,0,0,1,65.13,42.91Zm4.5,2.39a2.88,2.88,0,0,0-1.14-1.18,3.21,3.21,0,0,0-1.59-.4,3,3,0,0,0-1.57.41,2.93,2.93,0,0,0-1.15,1.19,4,4,0,0,0,0,3.64,2.93,2.93,0,0,0,1.15,1.19,3,3,0,0,0,1.57.41,3.12,3.12,0,0,0,1.59-.41A2.91,2.91,0,0,0,69.63,49a3.86,3.86,0,0,0,.42-1.85A3.72,3.72,0,0,0,69.63,45.3Z"/><path class="cls-2" d="M82.1,47.72H74.67a2.9,2.9,0,0,0,3,2.89,2.86,2.86,0,0,0,1.67-.46,2.44,2.44,0,0,0,.94-1.23H82a4,4,0,0,1-1.5,2.16,4.54,4.54,0,0,1-2.78.83,4.79,4.79,0,0,1-2.37-.59,4.16,4.16,0,0,1-1.63-1.67,5.66,5.66,0,0,1,0-5A4,4,0,0,1,75.29,43a4.82,4.82,0,0,1,2.4-.58A4.72,4.72,0,0,1,80,43a4,4,0,0,1,1.57,1.57,4.58,4.58,0,0,1,.55,2.26A7.44,7.44,0,0,1,82.1,47.72ZM80.17,45a2.58,2.58,0,0,0-1.06-1,3.33,3.33,0,0,0-1.49-.33,2.89,2.89,0,0,0-2,.74,3,3,0,0,0-.94,2.06h5.87A2.8,2.8,0,0,0,80.17,45Z"/><path class="cls-2" d="M86.89,42.81a3.67,3.67,0,0,1,1.85-.44V44h-.41c-1.73,0-2.6.93-2.6,2.79v5H84.19V42.54h1.54V44A2.93,2.93,0,0,1,86.89,42.81Z"/><path class="cls-2" d="M94.39,41v-1.4h3.19V51.76H96V41Z"/><path class="cls-2" d="M101,44.36a2.89,2.89,0,0,1-.51-1.72,3,3,0,0,1,1.83-2.8,5.82,5.82,0,0,1,4.39,0A3.18,3.18,0,0,1,108.09,41a3,3,0,0,1,.46,1.64,2.86,2.86,0,0,1-.52,1.71,3.08,3.08,0,0,1-1.45,1.08,3.32,3.32,0,0,1,1.68,1.12,3.07,3.07,0,0,1,.61,1.93,3.39,3.39,0,0,1-.54,1.91,3.55,3.55,0,0,1-1.53,1.26,5.54,5.54,0,0,1-2.29.44,5.33,5.33,0,0,1-2.26-.44,3.58,3.58,0,0,1-1.52-1.26,3.39,3.39,0,0,1-.54-1.91,3.12,3.12,0,0,1,.61-1.94,3.08,3.08,0,0,1,1.66-1.11A3.12,3.12,0,0,1,101,44.36Zm1.46,2.33a2,2,0,0,0-.8,1.74,2.16,2.16,0,0,0,.78,1.73,3.06,3.06,0,0,0,2.07.66,3,3,0,0,0,2.07-.66,2.18,2.18,0,0,0,.77-1.73,2.06,2.06,0,0,0-.78-1.73,3.29,3.29,0,0,0-2.06-.59A3.38,3.38,0,0,0,102.46,46.69Zm3.92-5.45a3.42,3.42,0,0,0-3.72,0,2,2,0,0,0-.67,1.6,1.87,1.87,0,0,0,.7,1.52,2.81,2.81,0,0,0,1.82.57,2.86,2.86,0,0,0,1.85-.58,1.91,1.91,0,0,0,.7-1.52A1.94,1.94,0,0,0,106.38,41.24Z"/><path class="cls-2" d="M117.63,44.94v1.3h-6.77v-1.3Z"/><path class="cls-2" d="M119.87,41v-1.4h3.19V51.76H121.5V41Z"/><path class="cls-2" d="M128.48,50a2.5,2.5,0,0,0,1.67.53,2.27,2.27,0,0,0,2.08-1.1,7.22,7.22,0,0,0,.64-3.68,2.57,2.57,0,0,1-1.19,1.18,3.94,3.94,0,0,1-1.85.43,4.34,4.34,0,0,1-2-.46,3.43,3.43,0,0,1-1.4-1.35,4.31,4.31,0,0,1-.51-2.16,4,4,0,0,1,1-2.9,4,4,0,0,1,3-1.1,3.61,3.61,0,0,1,3.33,1.53,8.7,8.7,0,0,1,1,4.56,13.2,13.2,0,0,1-.38,3.5,3.5,3.5,0,0,1-3.77,2.82,3.72,3.72,0,0,1-2.7-.92,3.59,3.59,0,0,1-1.1-2.36h1.42A2.38,2.38,0,0,0,128.48,50ZM132,45.34a2.49,2.49,0,0,0,.73-1.89,2.93,2.93,0,0,0-.71-2,2.63,2.63,0,0,0-2-.77,2.46,2.46,0,0,0-1.89.74,2.7,2.7,0,0,0-.7,1.95,2.78,2.78,0,0,0,.69,2,2.67,2.67,0,0,0,2,.74A2.58,2.58,0,0,0,132,45.34Z"/><path class="cls-2" d="M138.24,49.64l-1.9,4.52h-1l1.24-4.52Z"/><path class="cls-2" d="M147.47,47.71a13.33,13.33,0,0,0,2.07-2.3,4.13,4.13,0,0,0,.84-2.37,2.55,2.55,0,0,0-.54-1.72,2.14,2.14,0,0,0-1.72-.63,2.28,2.28,0,0,0-1.79.71,3,3,0,0,0-.69,1.91h-1.49a4,4,0,0,1,1.15-2.91,4.44,4.44,0,0,1,5.58-.07,3.46,3.46,0,0,1,1,2.65,5,5,0,0,1-.84,2.71A11.48,11.48,0,0,1,149.15,48c-.71.67-1.62,1.45-2.73,2.33h5.84v1.28H144.1V50.53C145.53,49.39,146.66,48.45,147.47,47.71Z"/><path class="cls-2" d="M155,41a4.2,4.2,0,0,1,6.63,0,8.94,8.94,0,0,1,.95,4.52,9.11,9.11,0,0,1-.95,4.58,4.19,4.19,0,0,1-6.63,0,9.22,9.22,0,0,1-1-4.58A9,9,0,0,1,155,41Zm5.86,2a3.12,3.12,0,0,0-.79-1.64,2.78,2.78,0,0,0-3.5,0,3.13,3.13,0,0,0-.8,1.64,13.45,13.45,0,0,0-.19,2.48,13.92,13.92,0,0,0,.19,2.54,3.21,3.21,0,0,0,.8,1.65,2.78,2.78,0,0,0,3.5,0,3.19,3.19,0,0,0,.79-1.65,13.82,13.82,0,0,0,.2-2.54A13.35,13.35,0,0,0,160.85,43.07Z"/><path class="cls-2" d="M167.89,47.71a13.68,13.68,0,0,0,2.06-2.3,4.13,4.13,0,0,0,.84-2.37,2.55,2.55,0,0,0-.54-1.72,2.13,2.13,0,0,0-1.72-.63,2.28,2.28,0,0,0-1.79.71,3,3,0,0,0-.69,1.91h-1.49a4,4,0,0,1,1.15-2.91,4.44,4.44,0,0,1,5.58-.07,3.46,3.46,0,0,1,1,2.65,5,5,0,0,1-.84,2.71,11.78,11.78,0,0,1-1.9,2.32c-.72.67-1.63,1.45-2.74,2.33h5.84v1.28h-8.16V50.53C166,49.39,167.07,48.45,167.89,47.71Z"/><path class="cls-2" d="M179,40.62a2.5,2.5,0,0,0-2.25,1.15,7.19,7.19,0,0,0-.73,3.8,2.83,2.83,0,0,1,1.3-1.37,4.14,4.14,0,0,1,2-.5,3.72,3.72,0,0,1,2.8,1.08,4.1,4.1,0,0,1,1,3,4.59,4.59,0,0,1-.45,2.06,3.42,3.42,0,0,1-1.36,1.44,4.22,4.22,0,0,1-2.2.54A4.36,4.36,0,0,1,176.4,51,4.09,4.09,0,0,1,175,48.88a12.4,12.4,0,0,1-.39-3.36q0-6.18,4.34-6.18a3.67,3.67,0,0,1,2.61.89,3.58,3.58,0,0,1,1.12,2.26h-1.42A2.12,2.12,0,0,0,179,40.62Zm-1.35,4.67a2.51,2.51,0,0,0-1.05.89,2.61,2.61,0,0,0-.39,1.46,2.89,2.89,0,0,0,.74,2.07,2.76,2.76,0,0,0,2.14.8,2.49,2.49,0,0,0,1.89-.73,2.74,2.74,0,0,0,.71-2,3,3,0,0,0-.68-2.06,2.56,2.56,0,0,0-2-.74A3.21,3.21,0,0,0,177.61,45.29Z"/><path class="cls-3" d="M3.49,5.19A7.14,7.14,0,0,1,8.82,3.05c2.89,0,5,1,6.34,2.87a6.24,6.24,0,0,1,1.18,3.23H12.72a5,5,0,0,0-.89-1.88A3.57,3.57,0,0,0,9,6.14a3.51,3.51,0,0,0-3.05,1.6,7.73,7.73,0,0,0-1.12,4.51A6.8,6.8,0,0,0,6,16.62a3.69,3.69,0,0,0,3,1.45,3.39,3.39,0,0,0,2.84-1.24,5.54,5.54,0,0,0,.9-2h3.6a7.8,7.8,0,0,1-2.38,4.62A7,7,0,0,1,9,21.2,7.36,7.36,0,0,1,3.2,18.8a9.67,9.67,0,0,1-2.12-6.61C1.08,9.16,1.89,6.83,3.49,5.19Z"/><path class="cls-3" d="M24.05,12.92a5.88,5.88,0,0,0,1.34-.29,1,1,0,0,0,.72-1,1.13,1.13,0,0,0-.55-1.09,3.53,3.53,0,0,0-1.63-.3,2.17,2.17,0,0,0-1.71.59,2.31,2.31,0,0,0-.47,1.18H18.51a5,5,0,0,1,.94-2.77c.9-1.13,2.42-1.69,4.59-1.69a8.29,8.29,0,0,1,3.76.83,3.22,3.22,0,0,1,1.64,3.16v5.88c0,.41,0,.9,0,1.49a2,2,0,0,0,.2.89,1.18,1.18,0,0,0,.5.39v.49H26.51A3.9,3.9,0,0,1,26.3,20a7.45,7.45,0,0,1-.09-.77A7.15,7.15,0,0,1,24.6,20.5a5,5,0,0,1-2.47.62,4.26,4.26,0,0,1-2.89-1,3.55,3.55,0,0,1-1.14-2.82,3.67,3.67,0,0,1,1.83-3.43,8.47,8.47,0,0,1,3-.82Zm2.05,1.57a3.91,3.91,0,0,1-.65.32,5.75,5.75,0,0,1-.9.23l-.77.14a5,5,0,0,0-1.54.46,1.54,1.54,0,0,0-.79,1.42,1.46,1.46,0,0,0,.49,1.24,1.8,1.8,0,0,0,1.17.39,3.56,3.56,0,0,0,2-.64,2.7,2.7,0,0,0,1-2.32Z"/><path class="cls-3" d="M39.5,7.6h.28v3.44L39.22,11h-.4a2.78,2.78,0,0,0-2.72,1.32,5.07,5.07,0,0,0-.39,2.28v6.13H32.34V7.9h3.2v2.23a7,7,0,0,1,1.35-1.75,3.66,3.66,0,0,1,2.45-.79Z"/><path class="cls-3" d="M48.55,8.1A4.08,4.08,0,0,1,50,9.52V3.4h3.4V20.72H50.16V19a4.68,4.68,0,0,1-1.63,1.65,4.56,4.56,0,0,1-2.29.52,4.76,4.76,0,0,1-3.78-1.82,7,7,0,0,1-1.53-4.66,8,8,0,0,1,1.51-5.17,4.93,4.93,0,0,1,4-1.88A4.13,4.13,0,0,1,48.55,8.1Zm.82,9.14a4.65,4.65,0,0,0,.75-2.74,4.23,4.23,0,0,0-1.19-3.37,2.55,2.55,0,0,0-1.7-.61,2.36,2.36,0,0,0-2.16,1.11,5.14,5.14,0,0,0-.68,2.76,5.06,5.06,0,0,0,.7,2.84,2.36,2.36,0,0,0,2.12,1.07A2.48,2.48,0,0,0,49.37,17.24Z"/><path class="cls-3" d="M59.92,6.37h-3.4V3.27h3.4ZM56.52,7.9h3.4V20.72h-3.4Z"/><path class="cls-3" d="M73.86,19.15a6,6,0,0,1-4.93,2,6,6,0,0,1-4.93-2,7.41,7.41,0,0,1-1.62-4.82A7.48,7.48,0,0,1,64,9.52a5.92,5.92,0,0,1,4.93-2,5.91,5.91,0,0,1,4.93,2,7.49,7.49,0,0,1,1.63,4.81A7.42,7.42,0,0,1,73.86,19.15ZM71.18,17.3a4.9,4.9,0,0,0,.79-3,4.86,4.86,0,0,0-.79-3,3,3,0,0,0-4.53,0,4.8,4.8,0,0,0-.79,3,4.84,4.84,0,0,0,.79,3,3,3,0,0,0,4.53,0Z"/><path class="cls-3" d="M81.31,20.72H78V3.38h3.35Z"/><path class="cls-3" d="M95.28,19.15a6,6,0,0,1-4.93,2,6,6,0,0,1-4.93-2,7.36,7.36,0,0,1-1.63-4.82,7.43,7.43,0,0,1,1.63-4.81,7,7,0,0,1,9.86,0,7.48,7.48,0,0,1,1.62,4.81A7.41,7.41,0,0,1,95.28,19.15ZM92.59,17.3a4.84,4.84,0,0,0,.79-3,4.8,4.8,0,0,0-.79-3,2.65,2.65,0,0,0-2.25-1,2.69,2.69,0,0,0-2.27,1,4.8,4.8,0,0,0-.79,3,4.84,4.84,0,0,0,.79,3,2.66,2.66,0,0,0,2.27,1A2.62,2.62,0,0,0,92.59,17.3Z"/><path class="cls-3" d="M105.65,7.88a4.06,4.06,0,0,1,2,1.86V7.9h3.27V20.06a6.86,6.86,0,0,1-.83,3.74Q108.62,26,104.55,26a7.42,7.42,0,0,1-4-1,3.54,3.54,0,0,1-1.72-2.88h3.65a1.45,1.45,0,0,0,.46.85,2.79,2.79,0,0,0,1.82.46,2.45,2.45,0,0,0,2.42-1.21,6.12,6.12,0,0,0,.4-2.62v-.82a4.12,4.12,0,0,1-1,1.24,4.18,4.18,0,0,1-2.6.76A4.91,4.91,0,0,1,100,19a7,7,0,0,1-1.48-4.7,7.92,7.92,0,0,1,1.43-4.8,4.68,4.68,0,0,1,4-1.95A4.54,4.54,0,0,1,105.65,7.88Zm1.14,9.2a4.12,4.12,0,0,0,.81-2.83,4.36,4.36,0,0,0-.77-2.78,2.52,2.52,0,0,0-2.06-1,2.41,2.41,0,0,0-2.42,1.66,5.79,5.79,0,0,0-.35,2.18,5,5,0,0,0,.37,2A2.44,2.44,0,0,0,104.81,18,2.59,2.59,0,0,0,106.79,17.08Z"/><path class="cls-3" d="M114.53,23.18l.42,0a4.82,4.82,0,0,0,.94,0,1.76,1.76,0,0,0,.76-.27,1.89,1.89,0,0,0,.54-.84,2.07,2.07,0,0,0,.22-.77L112.7,7.9h3.73l2.8,9.46,2.65-9.46h3.56l-4.39,12.61A17.78,17.78,0,0,1,119,25c-.5.59-1.49.88-3,.88h-.72l-.81-.05Z"/><path class="cls-3" d="M126.41,12.41H133v3.18h-6.57Z"/><path class="cls-3" d="M137.38,5.19a7.11,7.11,0,0,1,5.33-2.14c2.89,0,5,1,6.33,2.87a6.18,6.18,0,0,1,1.19,3.23h-3.62a5.15,5.15,0,0,0-.89-1.88,3.59,3.59,0,0,0-2.87-1.13,3.54,3.54,0,0,0-3.06,1.6,7.8,7.8,0,0,0-1.12,4.51,6.86,6.86,0,0,0,1.18,4.37,3.7,3.7,0,0,0,3,1.45,3.41,3.41,0,0,0,2.85-1.24,5.38,5.38,0,0,0,.89-2h3.6a7.8,7.8,0,0,1-2.38,4.62,6.92,6.92,0,0,1-4.9,1.77,7.36,7.36,0,0,1-5.82-2.4A9.62,9.62,0,0,1,135,12.19Q135,7.65,137.38,5.19Z"/><path class="cls-3" d="M163.27,3.38H167l-5.91,17.34H157.7L151.84,3.38h3.87l3.76,13.16Z"/><path class="cls-3" d="M170.85,5.19a7.15,7.15,0,0,1,5.34-2.14c2.88,0,5,1,6.33,2.87a6.26,6.26,0,0,1,1.19,3.23h-3.63a5,5,0,0,0-.88-1.88,3.61,3.61,0,0,0-2.88-1.13,3.52,3.52,0,0,0-3,1.6,7.73,7.73,0,0,0-1.12,4.51,6.8,6.8,0,0,0,1.18,4.37,3.7,3.7,0,0,0,3,1.45,3.39,3.39,0,0,0,2.84-1.24,5.54,5.54,0,0,0,.9-2h3.6a7.8,7.8,0,0,1-2.38,4.62,7,7,0,0,1-4.91,1.77,7.38,7.38,0,0,1-5.82-2.4,9.66,9.66,0,0,1-2.11-6.61Q168.45,7.65,170.85,5.19Z"/></svg>